<svg version="1.1" id="Layer_1" xmlns="http://www.w3.org/2000/svg" xmlns:xlink="http://www.w3.org/1999/xlink" x="0px" y="0px"
	 width="156px" height="28px" viewBox="0 0 2420 760" enable-background="new 0 0 2420 760" xml:space="preserve">
<polygon fill="#FFFFFF" points="2220,320 2180,320 2100,426.667 2100,240 2060,240 2060,520 2100,520 2100,480 2128.235,442.354 
	2180,520 2220,520 2149.411,414.117 "/>
<g>
	<g>
		<path fill="#FFFFFF" d="M780,320c-22.513,0-43.287,7.441-60,19.996V240h-40v280h40v-19.996C736.713,512.559,757.487,520,780,520
			c55.229,0,100-44.771,100-100S835.229,320,780,320z M780,480c-33.084,0-60-26.916-60-60s26.916-60,60-60s60,26.916,60,60
			S813.084,480,780,480z"/>
		<path fill="#FFFFFF" d="M1160,320c-22.513,0-43.287,7.441-60,19.996V240h-40v280h40v-19.996
			c16.713,12.555,37.487,19.996,60,19.996c55.229,0,100-44.771,100-100S1215.229,320,1160,320z M1160,480c-33.084,0-60-26.916-60-60
			s26.916-60,60-60s60,26.916,60,60S1193.084,480,1160,480z"/>
		<path fill="#FFFFFF" d="M1790,339.996c-16.713-12.554-37.487-19.996-60-19.996c-55.229,0-100,44.771-100,100s44.771,100,100,100
			c22.513,0,43.287-7.441,60-19.996V520h40V320h-40V339.996z M1730,480c-33.084,0-60-26.916-60-60s26.916-60,60-60s60,26.916,60,60
			S1763.084,480,1730,480z"/>
		<path fill="#FFFFFF" d="M1540,420v-60h60v-40h-60v-80h-40v80v40v60c0,55.229,44.771,100,100,100c6.85,0,13.537-0.69,20-2.002
			V476.56c-6.26,2.22-12.989,3.44-20,3.44C1566.916,480,1540,453.084,1540,420z"/>
		<path fill="#FFFFFF" d="M1960,360c16.542,0,31.542,6.729,42.406,17.594l28.305-28.305C2012.614,331.193,1987.614,320,1960,320
			c-55.229,0-100,44.771-100,100s44.771,100,100,100c27.614,0,52.614-11.193,70.711-29.289l-28.305-28.305
			C1991.542,473.271,1976.542,480,1960,480c-33.084,0-60-26.916-60-60S1926.916,360,1960,360z"/>
		<polygon fill="#FFFFFF" points="2220,320 2180,320 2100,426.667 2100,240 2060,240 2060,520 2100,520 2100,480 2128.235,442.354 
			2180,520 2220,520 2149.411,414.117 		"/>
		<path fill="#FFFFFF" d="M520,200H240c-22.091,0-40,17.909-40,40v280c0,22.092,17.909,40,40,40h280c22.091,0,40-17.908,40-40V240
			C560,217.909,542.091,200,520,200z M363.459,520.129c-1.885,3.051-5.151,4.871-8.737,4.871H245.278
			c-3.585,0-6.852-1.82-8.737-4.871s-2.054-6.786-0.45-9.994l54.723-109.457c1.751-3.502,5.271-5.678,9.187-5.678
			s7.436,2.176,9.187,5.678l54.723,109.457C365.513,513.343,365.344,517.078,363.459,520.129z M365,355c0,5.514-4.486,10-10,10H245
			c-5.514,0-10-4.486-10-10V245c0-5.514,4.486-10,10-10h110c5.514,0,10,4.486,10,10V355z M525,475c0,5.514-4.486,10-10,10h-30v30
			c0,5.514-4.486,10-10,10h-30c-5.514,0-10-4.486-10-10v-30h-30c-5.514,0-10-4.486-10-10v-30c0-5.514,4.486-10,10-10h30v-30
			c0-5.514,4.486-10,10-10h30c5.514,0,10,4.486,10,10v30h30c5.514,0,10,4.486,10,10V475z M460,365c-35.841,0-65-29.159-65-65
			s29.159-65,65-65s65,29.159,65,65S495.841,365,460,365z"/>
		<polygon fill="#4EAFF2" points="475,445 475,440 475,405 445,405 445,440 445,445 440,445 405,445 405,475 440,475 445,475 
			445,480 445,515 475,515 475,480 475,475 480,475 515,475 515,445 480,445 		"/>
		<rect x="245" y="245" fill="#FF9945" width="110" height="110"/>
		<path fill="#F945FF" d="M300.242,405.15c-0.039-0.078-0.075-0.15-0.242-0.15c-0.167,0-0.204,0.072-0.242,0.15l-54.722,109.457
			c-0.029,0.057-0.068,0.135,0.012,0.264s0.167,0.129,0.23,0.129h109.444c0.064,0,0.151,0,0.23-0.129s0.041-0.207,0.012-0.264
			L300.242,405.15z"/>
		<path fill="#C0FF45" d="M460,355c30.327,0,55-24.673,55-55s-24.673-55-55-55s-55,24.673-55,55S429.673,355,460,355z"/>
		<g>
			<path fill="#FFFFFF" d="M890,520c0.011-56.254,38.674-79.826,46.764-85.961s50.018-27.627,50.018-49.824
				c0-7.817-3.094-24.223-31.203-24.223c-24.484,0-30.676,23.723-30.676,23.723L890,366.083C890.363,364.81,904.094,320,958.305,320
				c51.165,0,71.695,34.329,71.695,62.714c0,26.364-16.259,42.372-23.167,48.053s-17.239,10.906-24.465,15.679
				c-7.226,4.771-36.524,26.133-39.333,33.539H1030V520H890z"/>
		</g>
		<path fill="#FFFFFF" d="M1433.267,375c-1.041-1.042-11.726-15.036-33.267-15.036c-8.793,0-30-0.276-30,16.09
			c0,36.866,100,14.866,100,83.985c0,19.381-13.341,59.961-70,59.961c-45.841,0-75.247-27.93-77.07-30.273l-2.93-3.711
			l25.427-25.589c1.302,1.822,23.833,19.591,52.673,19.591c28.41,0,31.9-12.688,31.9-19.979c0-34.869-100-15.369-100-83.984
			c0-20.385,21.207-56.055,70-56.055c41.457,0,62.1,26.172,62.1,26.172L1433.267,375z"/>
	</g>
</g>
</svg>
